<?xml version="1.0" encoding="UTF-8"?>
<svg xmlns="http://www.w3.org/2000/svg" viewBox="0 0 512 512" role="img" aria-labelledby="title desc">
  <title id="title">СПК Смарт — знак</title>
  <desc id="desc">Синяя капля воды с белой волной и бирюзовой дугой</desc>
  <defs>
    <linearGradient id="drop" x1="142" y1="72" x2="378" y2="432" gradientUnits="userSpaceOnUse">
      <stop offset="0" stop-color="#70D9FF"/>
      <stop offset="0.32" stop-color="#159EEA"/>
      <stop offset="0.68" stop-color="#075CB9"/>
      <stop offset="1" stop-color="#022A70"/>
    </linearGradient>
    <linearGradient id="crescent" x1="76" y1="166" x2="302" y2="465" gradientUnits="userSpaceOnUse">
      <stop offset="0" stop-color="#32E0F3"/>
      <stop offset="0.55" stop-color="#10BBD7"/>
      <stop offset="1" stop-color="#087CAE"/>
    </linearGradient>
    <linearGradient id="highlight" x1="170" y1="68" x2="271" y2="322" gradientUnits="userSpaceOnUse">
      <stop offset="0" stop-color="#FFFFFF" stop-opacity=".55"/>
      <stop offset=".75" stop-color="#FFFFFF" stop-opacity="0"/>
    </linearGradient>
    <filter id="shadow" x="-20%" y="-20%" width="140%" height="145%">
      <feDropShadow dx="0" dy="10" stdDeviation="12" flood-color="#001C46" flood-opacity=".28"/>
    </filter>
  </defs>

  <g filter="url(#shadow)">
    <path fill="url(#drop)" d="M276 28C241 81 130 210 130 325c0 91 67 160 156 160s156-69 156-160C442 210 331 81 296 28a12 12 0 0 0-20 0Z"/>
    <path fill="url(#highlight)" d="M286 52c-30 57-104 160-104 250 0 60 27 103 72 128-25-36-34-77-22-119 18-63 71-116 54-259Z"/>
    <path fill="#FFFFFF" d="M139 309c49 66 116 79 179 45 42-23 78-21 116 13-11 39-32 70-63 91-37-42-77-52-123-26-54 30-104 18-139-14-21-20-36-47-42-78 19 3 42-7 72-31Z"/>
    <path fill="#F8FBFF" d="M128 365c51 42 102 51 152 27 34-17 65-14 94 8-17 20-37 36-61 48-28-19-56-20-85-5-42 21-81 12-110-10-19-15-34-35-43-58 18 2 36-1 53-10Z"/>
    <path fill="url(#crescent)" d="M129 168c-47 54-72 124-59 190 17 86 91 145 180 145 46 0 89-15 123-42-28 12-60 17-91 13-83-9-144-66-154-139-8-56 10-111 49-160-17 8-33 18-48 31Z"/>
  </g>
</svg>
